HIERARCHY
ROOT Hips
{
	OFFSET	0.00	0.00	0.00
	CHANNELS 6 Xposition Yposition Zposition Zrotation Xrotation Yrotation
	JOINT Chest
	{
		OFFSET	0.00	4.21	0.00
		CHANNELS 3 Zrotation Xrotation Yrotation
		JOINT Neck
		{
			OFFSET	0.00	17.08	0.00
			CHANNELS 3 Zrotation Xrotation Yrotation
			JOINT Head
			{
				OFFSET	0.00	3.97	0.00
				CHANNELS 3 Zrotation Xrotation Yrotation
				End Site 
				{
					OFFSET	0.00	3.23	0.00
				}
			}
		}
		JOINT LeftCollar
		{
			OFFSET	1.02	14.86	1.71
			CHANNELS 3 Zrotation Xrotation Yrotation
			JOINT LeftUpArm
			{
				OFFSET	5.45	0.00	0.00
				CHANNELS 3 Zrotation Xrotation Yrotation
				JOINT LeftLowArm
				{
					OFFSET	0.00	-11.29	0.00
					CHANNELS 3 Zrotation Xrotation Yrotation
					JOINT LeftHand
					{
						OFFSET	0.00	-8.34	0.00
						CHANNELS 3 Zrotation Xrotation Yrotation
						End Site 
						{
							OFFSET	0.00	-6.13	0.00
						}
					}
				}
			}
		}
		JOINT RightCollar
		{
			OFFSET	-1.02	14.86	1.71
			CHANNELS 3 Zrotation Xrotation Yrotation
			JOINT RightUpArm
			{
				OFFSET	-5.52	0.00	0.00
				CHANNELS 3 Zrotation Xrotation Yrotation
				JOINT RightLowArm
				{
					OFFSET	0.00	-10.77	0.00
					CHANNELS 3 Zrotation Xrotation Yrotation
					JOINT RightHand
					{
						OFFSET	0.00	-7.98	0.00
						CHANNELS 3 Zrotation Xrotation Yrotation
						End Site 
						{
							OFFSET	0.00	-6.40	0.00
						}
					}
				}
			}
		}
	}
	JOINT LeftUpLeg
	{
		OFFSET	2.99	0.00	0.00
		CHANNELS 3 Zrotation Xrotation Yrotation
		JOINT LeftLowLeg
		{
			OFFSET	0.00	-15.03	0.00
			CHANNELS 3 Zrotation Xrotation Yrotation
			JOINT LeftFoot
			{
				OFFSET	0.00	-15.42	0.00
				CHANNELS 3 Zrotation Xrotation Yrotation
				End Site 
				{
					OFFSET	0.00	-2.17	0.00
				}
			}
		}
	}
	JOINT RightUpLeg
	{
		OFFSET	-2.57	-0.21	0.00
		CHANNELS 3 Zrotation Xrotation Yrotation
		JOINT RightLowLeg
		{
			OFFSET	0.00	-15.37	0.00
			CHANNELS 3 Zrotation Xrotation Yrotation
			JOINT RightFoot
			{
				OFFSET	0.00	-14.84	0.00
				CHANNELS 3 Zrotation Xrotation Yrotation
				End Site 
				{
					OFFSET	0.00	-2.20	0.00
				}
			}
		}
	}
}
MOTION
Frames:    17
Frame Time: 0.033333
-79.45	32.90	-54.32	13.26	-8.62	58.54	-2.01	8.33	3.70	15.67	52.96	-17.39	-5.86	-54.27	-2.88	-16.86	0.00	9.63	34.92	6.52	-38.18	0.00	-28.56	-14.16	12.25	1.71	6.21	22.69	5.10	-13.25	-34.06	0.88	26.78	0.00	-21.48	3.78	-5.11	-2.05	-0.52	-1.35	22.32	1.34	-3.08	3.67	6.41	-4.91	-16.45	-0.05	1.58	24.62	0.25	2.74	0.47	-5.41	2.91	-15.53	-0.33
-79.44	32.90	-54.32	13.30	-8.61	58.64	-2.06	8.39	3.49	15.27	52.85	-17.35	-5.05	-54.30	-1.82	-16.87	0.00	9.62	34.91	6.54	-38.12	0.00	-28.55	-14.20	12.31	1.65	6.27	22.48	5.11	-13.00	-33.63	0.84	25.88	0.00	-21.11	4.20	-4.66	-2.61	-0.49	-1.32	22.37	1.33	-3.11	3.49	6.11	-4.90	-16.03	-0.01	1.71	24.76	0.19	2.51	0.35	-5.37	2.91	-15.38	-0.33
-79.43	32.90	-54.32	13.30	-8.58	58.77	-2.10	8.41	3.21	15.14	52.75	-17.31	-4.15	-53.88	-0.96	-16.90	0.00	9.59	34.88	6.60	-37.96	0.00	-28.53	-14.29	12.52	1.38	6.54	22.37	5.11	-12.71	-33.32	0.81	24.96	0.00	-20.75	4.62	-4.46	-3.17	-0.47	-1.30	22.35	1.32	-3.11	3.36	5.75	-4.90	-15.73	0.01	1.83	24.85	0.14	2.30	0.26	-5.33	2.90	-15.21	-0.34
-79.42	32.90	-54.32	13.33	-8.54	58.96	-2.13	8.46	2.90	15.00	52.65	-17.27	-3.62	-53.66	-0.46	-16.94	0.00	9.54	34.84	6.69	-37.71	0.00	-28.48	-14.44	12.72	1.13	6.82	22.35	5.12	-12.43	-33.12	0.80	24.15	0.00	-20.47	4.95	-4.29	-3.69	-0.46	-1.29	22.35	1.31	-3.10	3.28	5.44	-4.89	-15.51	0.03	1.93	24.97	0.10	2.16	0.15	-5.37	2.90	-15.07	-0.35
-79.41	32.89	-54.32	13.35	-8.49	59.20	-2.17	8.49	2.51	14.85	52.56	-17.23	-3.33	-53.54	-0.18	-17.00	0.00	9.46	34.78	6.80	-37.41	0.00	-28.43	-14.64	12.92	0.88	7.09	22.40	5.12	-12.10	-32.98	0.83	23.32	0.00	-20.19	5.31	-4.13	-4.19	-0.44	-1.28	22.31	1.31	-3.05	3.28	5.06	-4.89	-15.37	0.05	2.03	25.09	0.06	2.06	-0.02	-5.49	2.90	-14.88	-0.36
-79.39	32.89	-54.32	13.32	-8.40	59.46	-2.20	8.47	2.13	14.69	52.47	-17.19	-3.21	-53.50	-0.06	-17.08	0.00	9.37	34.72	6.94	-37.06	0.00	-28.37	-14.86	13.10	0.64	7.36	22.53	5.13	-11.81	-32.95	0.83	22.72	0.00	-19.96	5.37	-3.99	-4.67	-0.43	-1.28	22.22	1.30	-3.02	3.30	4.76	-4.88	-15.29	0.05	2.10	25.14	0.03	2.03	-0.17	-5.66	2.90	-14.74	-0.37
-79.38	32.88	-54.32	13.27	-8.29	59.72	-2.25	8.44	1.78	14.51	52.37	-17.16	-3.13	-53.48	0.02	-17.16	0.00	9.27	34.66	7.09	-36.70	0.00	-28.30	-15.11	13.27	0.42	7.61	22.71	5.13	-11.65	-32.92	0.72	22.11	0.00	-19.66	5.37	-3.85	-5.14	-0.42	-1.27	22.10	1.30	-2.99	3.36	4.45	-4.88	-15.27	0.06	2.17	25.18	0.00	2.00	-0.35	-5.88	2.90	-14.57	-0.38
-79.37	32.88	-54.32	13.19	-8.16	59.98	-2.30	8.36	1.53	14.32	52.26	-17.12	-3.15	-53.50	0.00	-17.25	0.00	9.15	34.60	7.26	-36.33	0.00	-28.22	-15.38	13.42	0.23	7.86	22.91	5.13	-11.63	-32.97	0.56	21.84	0.00	-19.51	4.98	-3.73	-5.60	-0.41	-1.28	21.92	1.29	-2.92	3.44	4.17	-4.88	-15.25	0.06	2.27	25.16	-0.04	1.95	-0.52	-6.11	2.89	-14.50	-0.38
-79.36	32.87	-54.33	13.08	-8.04	60.20	-2.35	8.26	1.39	14.11	52.15	-17.07	-3.25	-53.54	-0.10	-17.35	0.00	9.02	34.54	7.44	-35.99	0.00	-28.14	-15.65	13.54	0.06	8.08	23.05	5.13	-11.72	-32.95	0.37	21.60	0.00	-19.38	4.65	-3.63	-6.03	-0.40	-1.30	21.71	1.28	-2.87	3.54	3.94	-4.88	-15.25	0.06	2.33	25.11	-0.07	1.91	-0.71	-6.31	2.89	-14.44	-0.38
-79.35	32.87	-54.33	12.91	-7.87	60.36	-2.39	8.10	1.44	13.87	52.03	-17.03	-3.37	-53.58	-0.22	-17.45	0.00	8.88	34.50	7.62	-35.69	0.00	-28.07	-15.92	13.62	-0.07	8.28	23.20	5.13	-12.00	-32.99	0.12	21.51	0.00	-19.36	4.29	-3.54	-6.43	-0.39	-1.34	21.43	1.28	-2.82	3.65	3.78	-4.88	-15.23	0.06	2.35	24.94	-0.07	1.90	-0.82	-6.51	2.89	-14.40	-0.39
-79.34	32.86	-54.34	12.74	-7.75	60.51	-2.40	7.96	1.50	13.60	51.90	-16.98	-3.45	-53.59	-0.30	-17.56	0.00	8.74	34.47	7.80	-35.45	0.00	-28.00	-16.17	13.67	-0.15	8.44	23.31	5.12	-12.31	-32.99	-0.14	21.31	0.00	-19.28	4.17	-3.48	-6.79	-0.39	-1.37	21.17	1.28	-2.73	3.75	3.60	-4.88	-15.26	0.06	2.40	24.79	-0.10	1.86	-0.95	-6.67	2.89	-14.37	-0.39
-79.33	32.86	-54.35	12.60	-7.65	60.65	-2.39	7.87	1.59	13.29	51.75	-16.92	-3.45	-53.55	-0.30	-17.66	0.00	8.58	34.45	7.97	-35.29	0.00	-27.93	-16.40	13.66	-0.17	8.57	23.37	5.11	-12.63	-32.92	-0.40	21.11	0.00	-19.11	4.18	-3.45	-7.12	-0.39	-1.41	20.97	1.28	-2.65	3.82	3.46	-4.88	-15.22	0.06	2.42	24.69	-0.10	1.88	-1.08	-6.85	2.89	-14.40	-0.39
-79.31	32.86	-54.36	12.45	-7.56	60.77	-2.36	7.74	1.65	12.96	51.58	-16.86	-3.34	-53.45	-0.19	-17.77	0.00	8.42	34.46	8.13	-35.24	0.00	-27.87	-16.60	13.58	-0.12	8.64	23.43	5.11	-12.89	-32.92	-0.59	20.98	0.00	-18.93	4.07	-3.44	-7.41	-0.39	-1.42	20.76	1.27	-2.58	3.90	3.31	-4.88	-15.23	0.06	2.45	24.59	-0.11	1.90	-1.18	-6.98	2.89	-14.41	-0.39
-79.29	32.86	-54.36	12.28	-7.46	60.83	-2.33	7.60	1.64	12.58	51.40	-16.79	-3.11	-53.29	0.06	-17.87	0.00	8.26	34.50	8.27	-35.31	0.00	-27.83	-16.76	13.43	0.01	8.67	23.42	5.11	-13.06	-32.88	-0.75	20.98	0.00	-18.72	4.04	-3.45	-7.67	-0.39	-1.46	20.54	1.27	-2.53	4.00	3.26	-4.88	-15.26	0.06	2.42	24.44	-0.11	1.96	-1.24	-7.10	2.89	-14.44	-0.38
-79.28	32.86	-54.37	12.12	-7.36	60.83	-2.32	7.43	1.64	12.17	51.19	-16.71	-2.74	-53.06	0.46	-17.96	0.00	8.10	34.57	8.40	-35.52	0.00	-27.79	-16.87	13.18	0.22	8.66	23.39	5.10	-13.16	-32.87	-0.81	21.17	0.00	-18.62	3.80	-3.48	-7.90	-0.40	-1.50	20.36	1.28	-2.50	4.01	3.23	-4.88	-15.25	0.06	2.38	24.28	-0.09	2.00	-1.25	-7.15	2.89	-14.43	-0.38
-79.27	32.86	-54.37	11.86	-7.20	60.67	-2.31	7.14	1.76	11.72	50.95	-16.63	-2.23	-52.76	1.04	-18.04	0.00	7.94	34.67	8.50	-35.90	0.00	-27.78	-16.91	12.82	0.54	8.61	23.37	5.10	-13.26	-32.91	-0.89	21.44	0.00	-18.60	3.48	-3.51	-8.11	-0.41	-1.61	20.06	1.30	-2.46	4.01	3.34	-4.88	-15.30	0.05	2.27	23.93	-0.04	2.06	-1.15	-7.03	2.89	-14.44	-0.38
-79.28	32.85	-54.39	11.46	-6.94	60.33	-2.36	6.68	1.99	11.24	50.69	-16.54	-1.59	-52.42	1.81	-18.12	0.00	7.78	34.81	8.57	-36.47	0.00	-27.78	-16.89	12.32	0.96	8.52	23.35	5.10	-13.28	-32.99	-0.92	21.87	0.00	-18.62	2.98	-3.53	-8.30	-0.41	-1.77	19.62	1.32	-2.46	3.92	3.64	-4.88	-15.24	0.06	2.06	23.33	0.04	2.13	-0.92	-6.76	2.90	-14.52	-0.38
